<?xml version="1.0" standalone="no"?>
<!DOCTYPE svg PUBLIC "-//W3C//DTD SVG 20010904//EN"
 "http://www.w3.org/TR/2001/REC-SVG-20010904/DTD/svg10.dtd">
<svg version="1.0" xmlns="http://www.w3.org/2000/svg"
 width="1024.000000pt" height="1024.000000pt" viewBox="0 0 1024.000000 1024.000000"
 preserveAspectRatio="xMidYMid meet">

<g transform="translate(0.000000,1024.000000) scale(0.100000,-0.100000)"
fill="#000000" stroke="none">
<path d="M5316 7753 c-3 -10 -13 -70 -22 -133 -9 -63 -22 -127 -30 -142 -7
-14 -64 -73 -126 -130 -178 -162 -225 -216 -266 -298 -36 -73 -37 -76 -37
-190 0 -90 4 -122 18 -147 9 -18 17 -34 17 -38 0 -3 -32 -5 -71 -5 l-71 0 4
-55 c5 -65 30 -98 96 -126 l42 -18 0 -571 0 -571 -22 6 c-58 17 -210 95 -278
144 -289 206 -478 474 -558 790 -24 96 -27 123 -27 296 0 145 4 210 18 272 74
346 256 623 544 833 57 40 101 75 100 76 -7 7 -215 -72 -304 -116 -159 -79
-275 -162 -403 -290 -215 -215 -351 -466 -411 -760 -26 -123 -36 -383 -20
-505 77 -591 496 -1098 1060 -1285 512 -169 1049 -62 1469 293 294 248 487
624 526 1022 l6 60 -23 -65 c-79 -220 -265 -456 -475 -604 -77 -54 -228 -135
-279 -151 l-23 -6 0 555 c0 305 -3 561 -6 570 -3 9 -1 16 6 16 6 0 33 9 60 21
56 24 80 63 80 128 l0 41 -74 0 -75 0 21 47 c29 66 36 192 13 269 -32 111 -82
174 -276 350 -155 141 -145 121 -174 317 -10 64 -19 117 -21 117 -1 0 -5 -8
-8 -17z m127 -1452 c15 -14 40 -50 55 -81 l27 -55 0 -445 0 -445 -97 -9 c-58
-5 -142 -5 -205 0 l-108 9 0 430 c0 338 3 440 14 478 17 60 87 139 150 172
l46 23 45 -25 c25 -14 58 -37 73 -52z"/>
<path d="M3030 3860 l0 -461 97 3 98 3 -1 198 -1 197 193 0 194 0 0 -200 0
-200 95 0 95 0 0 460 0 460 -95 0 -95 0 0 -183 0 -183 -192 2 -193 2 0 178 0
179 -97 3 -98 3 0 -461z"/>
<path d="M4238 4198 c-26 -68 -103 -271 -172 -452 -69 -181 -126 -333 -126
-337 0 -5 45 -9 99 -9 l100 0 32 100 33 100 182 0 181 0 35 -97 34 -98 102 -3
c56 -1 102 0 102 3 0 8 -340 876 -351 898 -8 14 -25 17 -107 17 l-98 0 -46
-122z m211 -265 c27 -70 52 -136 56 -145 7 -17 -3 -18 -114 -18 -67 0 -121 3
-121 6 0 5 58 172 106 304 8 21 15 7 73 -147z"/>
<path d="M4750 4314 c0 -3 8 -18 18 -32 11 -15 80 -135 155 -268 l137 -241 0
-186 0 -187 95 0 95 0 0 181 0 182 38 66 c21 36 93 159 160 274 67 114 122
209 122 212 0 3 -51 5 -113 5 l-112 0 -88 -175 c-48 -96 -90 -175 -94 -175 -5
1 -52 79 -106 175 l-98 175 -104 0 c-58 0 -105 -3 -105 -6z"/>
<path d="M5630 4315 c0 -3 69 -121 153 -263 l152 -257 5 -195 5 -195 98 -3 97
-3 0 186 0 186 86 152 c48 84 117 205 155 269 38 64 69 119 69 122 0 3 -49 6
-108 6 l-109 0 -94 -180 c-74 -143 -96 -178 -105 -166 -5 8 -50 89 -100 180
l-89 166 -107 0 c-60 0 -108 -2 -108 -5z"/>
<path d="M6730 4316 c0 -2 -76 -198 -169 -437 -93 -239 -172 -444 -176 -457
l-7 -23 103 3 102 3 32 95 32 95 184 3 185 2 33 -100 34 -100 104 0 c57 0 102
3 100 8 -2 4 -84 211 -182 460 l-178 452 -99 0 c-54 0 -98 -2 -98 -4z m166
-384 l60 -157 -58 -3 c-31 -2 -86 -2 -121 0 l-63 3 56 157 c30 87 57 158 60
158 3 0 32 -71 66 -158z"/>
<path d="M1882 3073 c-6 -16 -69 -190 -142 -388 -72 -198 -132 -364 -133 -368
-1 -5 36 -9 83 -9 l85 0 30 86 30 86 155 -2 155 -3 30 -84 30 -83 83 -2 c45 0
82 3 82 8 0 6 -64 179 -141 385 -78 207 -144 382 -146 389 -4 8 -33 12 -98 12
-92 0 -93 0 -103 -27z m160 -311 c27 -70 50 -131 51 -137 1 -6 -41 -11 -106
-13 -60 -1 -107 1 -105 6 1 4 25 70 52 145 27 76 51 135 54 132 4 -3 28 -63
54 -133z"/>
<path d="M2492 2705 l3 -396 260 0 260 0 3 76 3 75 -181 0 -180 0 0 320 0 320
-85 0 -86 0 3 -395z"/>
<path d="M3407 3093 c-3 -5 -53 -141 -112 -303 -58 -162 -122 -337 -141 -388
-19 -51 -34 -93 -34 -95 0 -1 39 -1 87 0 l87 1 29 86 29 86 151 0 152 0 30
-86 31 -86 82 -1 c49 -1 82 2 82 8 0 8 -140 385 -272 733 l-19 52 -89 0 c-49
0 -91 -3 -93 -7z m148 -330 c28 -75 52 -140 53 -145 2 -4 -44 -8 -102 -8 -58
0 -106 3 -106 7 0 14 95 283 100 283 3 0 28 -62 55 -137z"/>
<path d="M4002 2705 l3 -396 255 0 255 0 3 76 3 75 -176 0 -175 0 0 320 0 320
-85 0 -85 0 2 -395z"/>
<path d="M5122 2704 l3 -396 83 -1 82 -2 0 158 0 157 150 0 150 0 0 65 0 65
-150 0 -150 0 0 100 0 100 168 0 167 0 -2 72 -1 73 -251 3 -251 2 2 -396z"/>
<path d="M5792 2708 c-79 -216 -143 -395 -142 -398 0 -3 38 -5 85 -5 l85 0 28
85 29 85 153 0 153 0 27 -80 27 -80 89 -5 c49 -3 90 -5 91 -5 1 0 -33 95 -76
210 -43 116 -109 293 -147 395 l-69 185 -95 3 -96 3 -142 -393z m291 59 c26
-72 47 -138 47 -144 0 -10 -27 -13 -100 -13 -55 0 -100 3 -100 8 0 13 95 282
100 282 3 0 26 -60 53 -133z"/>
<path d="M6530 2707 c0 -217 2 -396 4 -398 2 -2 119 -3 260 -1 l256 3 0 74 0
75 -175 0 -175 0 0 320 0 320 -85 0 -85 0 0 -393z"/>
<path d="M7366 2948 c-156 -424 -233 -638 -230 -640 1 -2 41 -2 88 0 l85 3 28
85 27 84 156 -2 155 -3 30 -84 30 -83 83 -2 c45 0 82 3 82 8 0 8 -169 466
-260 704 l-32 82 -93 0 -93 0 -56 -152z m207 -183 c25 -66 48 -128 52 -137 7
-17 -2 -18 -105 -18 -103 0 -112 1 -105 18 4 9 27 75 52 145 25 71 49 125 54
120 4 -4 27 -62 52 -128z"/>
<path d="M8020 2703 l0 -398 82 2 83 1 3 171 2 171 175 0 175 0 0 -172 0 -173
82 2 83 1 3 396 2 396 -85 0 -84 0 -3 -152 -3 -153 -172 -3 -173 -2 0 155 0
155 -85 0 -85 0 0 -397z"/>
<path d="M4600 2675 l0 -65 175 0 175 0 0 65 0 65 -175 0 -175 0 0 -65z"/>
</g>
</svg>
